Coordinates
version=1
nRows=24
nColumns=24
inDegrees=yes

Units are S.I. units (second, meters, Newtons, ...)
Angles are in degrees.

endheader
time	pelvis_tilt	pelvis_list	pelvis_rotation	pelvis_tx	pelvis_ty	pelvis_tz	hip_flexion_r	hip_adduction_r	hip_rotation_r	knee_angle_r	ankle_angle_r	subtalar_angle_r	mtp_angle_r	hip_flexion_l	hip_adduction_l	hip_rotation_l	knee_angle_l	ankle_angle_l	subtalar_angle_l	mtp_angle_l	lumbar_extension	lumbar_bending	lumbar_rotation
      6.00000000	     32.96794208	      5.80814182	      6.09544038	      2.08700156	      0.67448702	     -0.26603805	    -16.57558430	     -5.38729640	    -15.03353487	    -62.97924284	     11.22260230	      0.49611031	      0.00000000	    -24.90364565	      2.26042877	      1.81483552	    -19.51139825	     18.39848436	     12.25661889	      0.00000000	    -64.10957435	     -0.52818340	     -2.28380160
      6.00500000	     32.85483924	      5.76751685	      6.33706903	      2.09248659	      0.67521181	     -0.26601571	    -15.73682529	     -5.23334126	    -15.35196124	    -62.13550928	     11.74772761	      0.97672533	      0.00000000	    -25.64478982	      1.99905914	      1.79660329	    -18.81134150	     18.48438179	     12.53145079	      0.00000000	    -64.05272262	     -0.37114037	     -2.46239563
      6.01000000	     32.77744695	      5.73609970	      6.59257502	      2.09800996	      0.67587566	     -0.26596206	    -14.99425897	     -5.07831202	    -15.68955624	    -61.16735434	     12.21787103	      1.40065172	      0.00000000	    -26.41748392	      1.73256646	      1.79108108	    -18.13206141	     18.59235010	     12.76793400	      0.00000000	    -64.02490023	     -0.22740911	     -2.64006038
      6.01500000	     32.64784448	      5.68230430	      6.77337753	      2.10346807	      0.67641424	     -0.26583633	    -14.18042876	     -4.92106744	    -15.92379194	    -60.13500855	     12.63667563	      1.59286033	      0.00000000	    -27.10009885	      1.49937172	      1.73303132	    -17.50373339	     18.59624894	     12.81419732	      0.00000000	    -63.96611184	     -0.11957763	     -2.80505037
      6.02000000	     32.77642689	      5.68115504	      7.09076143	      2.10903866	      0.67705017	     -0.26582886	    -13.81366386	     -4.75354751	    -16.35506522	    -58.87624894	     13.01031666	      1.87347245	      0.00000000	    -28.09407625	      1.19760781	      1.81503569	    -16.84053093	     18.73564543	     13.06863634	      0.00000000	    -64.12474794	      0.09726547	     -3.01623289
      6.02500000	     32.60844316	      5.63627123	      7.19834021	      2.11448550	      0.67734495	     -0.26570317	    -12.99470291	     -4.65534919	    -16.50235894	    -57.70287883	     13.31988031	      1.96444145	      0.00000000	    -28.69763234	      1.03562508	      1.74079541	    -16.29627772	     18.79594382	     13.00619458	      0.00000000	    -64.02689738	      0.15401831	     -3.14867455
      6.03000000	     32.69501727	      5.60633913	      7.43907955	      2.12004801	      0.67775522	     -0.26562490	    -12.62060560	     -4.48577686	    -16.82631381	    -56.27358123	     13.59260640	      2.07875303	      0.00000000	    -29.59613207	      0.75354632	      1.71425833	    -15.73452825	     18.96513454	     13.18678748	      0.00000000	    -64.14200520	      0.31830649	     -3.26438897
      6.03500000	     32.56188550	      5.57568498	      7.52556161	      2.12551622	      0.67789374	     -0.26547538	    -11.93175824	     -4.40339738	    -16.94185999	    -54.88237897	     13.79639848	      2.09390835	      0.00000000	    -30.19398479	      0.61727698	      1.63078618	    -15.29511276	     19.07441164	     13.09540738	      0.00000000	    -64.05992937	      0.35556823	     -3.40001834
      6.04000000	     32.64951295	      5.56110777	      7.71226274	      2.13104585	      0.67810221	     -0.26536786	    -11.61304726	     -4.26672651	    -17.20004065	    -53.28860954	     13.95872965	      1.97285327	      0.00000000	    -31.05777617	      0.38776947	      1.57251552	    -14.80821175	     19.24887209	     13.17025135	      0.00000000	    -64.19330364	      0.48143872	     -3.50070531
      6.04500000	     32.49519147	      5.57990473	      7.74992603	      2.13649584	      0.67802345	     -0.26518614	    -10.96846734	     -4.26025065	    -17.26252394	    -51.74146401	     14.12470835	      1.88169132	      0.00000000	    -31.59478612	      0.33710388	      1.45955654	    -14.45856660	     19.36641453	     13.03060154	      0.00000000	    -64.10544463	      0.44901786	     -3.66876354
      6.05000000	     32.39614155	      5.58297019	      7.81439196	      2.14198104	      0.67791558	     -0.26501197	    -10.45876405	     -4.20923195	    -17.35027865	    -50.03943282	     14.22770117	      1.67965626	      0.00000000	    -32.17391691	      0.24447871	      1.33199381	    -14.15074823	     19.52150557	     12.93889063	      0.00000000	    -64.05743402	      0.46043308	     -3.79940387
      6.05500000	     32.51425801	      5.56975671	      7.96133657	      2.14752567	      0.67789103	     -0.26490004	    -10.30026825	     -4.07243168	    -17.54373911	    -48.13608028	     14.11526352	      1.30852258	      0.00000000	    -33.01370927	      0.04290510	      1.22246810	    -13.79659211	     19.79148510	     12.97468878	      0.00000000	    -64.19860122	      0.58028943	     -3.87069787
      6.06000000	     32.60505149	      5.61479708	      8.03597877	      2.15304504	      0.67774464	     -0.26474688	    -10.14630594	     -4.02886867	    -17.67836584	    -46.16838783	     14.15770001	      1.05903007	      0.00000000	    -33.80371444	     -0.05236612	      1.07859884	    -13.49849736	     19.97240631	     12.91351591	      0.00000000	    -64.32912975	      0.60659887	     -4.01040299
      6.06500000	     32.57546143	      5.67213494	      8.07000474	      2.15853378	      0.67743296	     -0.26456574	     -9.87155264	     -4.02855569	    -17.75099367	    -44.14960399	     14.16205811	      0.76179510	      0.00000000	    -34.41650482	     -0.08533741	      0.92305619	    -13.29719519	     20.17907241	     12.82774140	      0.00000000	    -64.34739188	      0.58230054	     -4.13250865
      6.07000000	     32.68459710	      5.75248931	      8.12053480	      2.16406030	      0.67714509	     -0.26438951	     -9.84758456	     -4.01469208	    -17.86445035	    -41.96651655	     14.20620269	      0.50485199	      0.00000000	    -35.18935521	     -0.14091834	      0.76694800	    -13.09009115	     20.37888009	     12.82056908	      0.00000000	    -64.49284062	      0.57621178	     -4.24525745
      6.07500000	     32.59209958	      5.82166799	      8.11595855	      2.16954911	      0.67665305	     -0.26421377	     -9.59130658	     -4.04331963	    -17.89666439	    -39.75855232	     14.12482101	      0.17078885	      0.00000000	    -35.69044784	     -0.12138234	      0.58018860	    -12.98571319	     20.61541506	     12.69143827	      0.00000000	    -64.44657688	      0.52526893	     -4.36064100
      6.08000000	     32.72330738	      5.92034317	      8.15038550	      2.17510735	      0.67625506	     -0.26403673	     -9.71527994	     -4.03655244	    -18.00830628	    -37.34324202	     14.14276657	     -0.03652572	      0.00000000	    -36.46416254	     -0.15912233	      0.40480769	    -12.83870364	     20.81809976	     12.71263375	      0.00000000	    -64.60420491	      0.51273285	     -4.47880575
      6.08500000	     32.64319396	      6.01098902	      8.13047525	      2.18064260	      0.67565330	     -0.26386316	     -9.60054445	     -4.07713561	    -18.04743955	    -34.90722274	     14.05777990	     -0.28654920	      0.00000000	    -36.95905598	     -0.11756679	      0.21718435	    -12.79027513	     21.06755058	     12.61842160	      0.00000000	    -64.55739587	      0.44741141	     -4.56894585
      6.09000000	     32.74034552	      6.12889408	      8.14786126	      2.18622399	      0.67512158	     -0.26367222	     -9.80470844	     -4.08485834	    -18.16252294	    -32.27969509	     14.06911214	     -0.39648289	      0.00000000	    -37.65940667	     -0.12863100	      0.04587344	    -12.72688437	     21.26989021	     12.65368390	      0.00000000	    -64.67850798	      0.41595173	     -4.66691592
      6.09500000	     32.73400408	      6.24936648	      8.11136117	      2.19185357	      0.67446631	     -0.26350063	     -9.92288055	     -4.13399964	    -18.23882597	    -29.60403937	     14.02441987	     -0.37705191	      0.00000000	    -38.24550242	     -0.07605530	     -0.11583397	    -12.68082516	     21.49256404	     12.62320627	      0.00000000	    -64.67826421	      0.34289855	     -4.76790855
      6.10000000	     32.80251965	      6.40599330	      8.09471116	      2.19748347	      0.67381073	     -0.26327698	    -10.20931931	     -4.17980242	    -18.35622886	    -26.80051160	     14.04933580	     -0.25586255	      0.00000000	    -38.89761194	     -0.03766221	     -0.25680811	    -12.66905834	     21.66831695	     12.66499448	      0.00000000	    -64.76512020	      0.26291640	     -4.87310491
      6.10500000	     32.81193449	      6.56819022	      8.04308108	      2.20318014	      0.67306345	     -0.26304010	    -10.47229988	     -4.24500435	    -18.45352995	    -23.94210822	     14.04432244	     -0.00511655	      0.00000000	    -39.48669105	      0.03544758	     -0.38018911	    -12.67037421	     21.85196274	     12.69851902	      0.00000000	    -64.77567790	      0.14823003	     -4.95993501
      6.11000000	     32.82784235	      6.75332987	      7.97251289	      2.20892427	      0.67226927	     -0.26275569	    -10.79421467	     -4.32236183	    -18.54117208	    -21.02463649	     14.02780712	      0.36571775	      0.00000000	    -40.08353816	      0.12629518	     -0.47779669	    -12.68221185	     22.01215628	     12.76288813	      0.00000000	    -64.78654829	      0.00669210	     -5.05955726
      6.11500000	     32.56166138	      6.98312896	      7.73668856	      2.21465604	      0.67122288	     -0.26230205	    -10.72609672	     -4.52508019	    -18.32354504	    -18.24001264	     13.94035988	      0.61654931	      0.00000000	    -40.34530670	      0.41904181	     -0.57738495	    -12.76628019	     22.11667623	     12.71704501	      0.00000000	    -64.53203768	     -0.34392077	     -5.17973283
